<?xml version="1.0" encoding="utf-8"?>
<!-- Generator: Adobe Illustrator 25.3.1, SVG Export Plug-In . SVG Version: 6.00 Build 0)  -->
<svg version="1.1" id="Слой_1" xmlns="http://www.w3.org/2000/svg" xmlns:xlink="http://www.w3.org/1999/xlink" x="0px" y="0px"
	 width="48px" height="48px" viewBox="0 0 48 48" enable-background="new 0 0 48 48" xml:space="preserve">
<path fill-rule="evenodd" clip-rule="evenodd" fill="#800D63" d="M13,26.2c-1.2,0-2.2,1-2.2,2.2s1,2.2,2.2,2.2s2.2-1,2.2-2.2
	S14.2,26.2,13,26.2z"/>
<path fill-rule="evenodd" clip-rule="evenodd" fill="#800D63" d="M35,26.2c-1.2,0-2.2,1-2.2,2.2s1,2.2,2.2,2.2s2.2-1,2.2-2.2
	S36.2,26.2,35,26.2z"/>
<path fill-rule="evenodd" clip-rule="evenodd" fill="#800D63" d="M37.2,33H10.8c-2.4,0-4.4-2-4.4-4.5s2-4.5,4.4-4.5h26.4
	c2.4,0,4.4,2,4.4,4.5S39.6,33,37.2,33z M16.6,10.5h14.8c1,0,2,0.8,2.2,1.8l1.8,7.2H12.6l1.8-7.2C14.7,11.3,15.6,10.5,16.6,10.5z
	 M46,28.5c0-4-2.5-7.3-6-8.5l-2.1-8.6C37.3,8.3,34.5,6,31.4,6H16.6c-3.1,0-5.9,2.3-6.5,5.4L8,20c-3.5,1.2-6,4.5-6,8.5
	c0,3.3,1.8,6.2,4.4,7.7v1.3c0,2.2,0,4.5,3.3,4.5s3.3-2.2,3.3-4.5h22c0,2.2,0,4.5,3.3,4.5s3.3-2.2,3.3-4.5s0-1.3,0-1.3
	C44.2,34.7,46,31.8,46,28.5z"/>
<path fill-rule="evenodd" clip-rule="evenodd" fill="#800D63" d="M19.6,28.5c0,1.2,1,2.2,2.2,2.2h4.4c1.2,0,2.2-1,2.2-2.2
	s-1-2.2-2.2-2.2h-4.4C20.6,26.2,19.6,27.3,19.6,28.5z"/>
</svg>
