<?xml version="1.0" encoding="utf-8"?>
<!-- Generator: Adobe Illustrator 25.3.1, SVG Export Plug-In . SVG Version: 6.00 Build 0)  -->
<svg version="1.1" id="Слой_1" xmlns="http://www.w3.org/2000/svg" xmlns:xlink="http://www.w3.org/1999/xlink" x="0px" y="0px"
	 width="48px" height="48px" viewBox="0 0 48 48" enable-background="new 0 0 48 48" xml:space="preserve">
<path fill-rule="evenodd" clip-rule="evenodd" fill="#541E66" d="M41.6,31.8c0,0.6-0.4,1-1,1h-8.7c-0.3,0-0.5-0.1-0.7-0.3l-3.4-3.4
	c-0.4-0.4-0.4-1,0-1.4l3.4-3.4c0.2-0.2,0.4-0.3,0.7-0.3h8.7c0.6,0,1,0.4,1,1V31.8z M37.2,40.6c0,0.6-0.4,1-1,1H7.4c-0.6,0-1-0.4-1-1
	V16.2c0-0.6,0.4-1,1-1h28.8c0.6,0,1,0.4,1,1v2.4c0,0.6-0.4,1-1,1h-5.6c-0.6,0-1.1,0.2-1.6,0.6l-6.6,6.6c-0.9,0.9-0.9,2.3,0,3.1
	l6.6,6.6c0.4,0.4,1,0.6,1.6,0.6h5.6c0.6,0,1,0.4,1,1L37.2,40.6z M28.7,7.3c0.5-0.2,1,0,1.3,0.5l0.8,1.5c0.3,0.7-0.2,1.4-0.9,1.4
	h-4.6c-1.1,0-1.4-1.5-0.4-1.9L28.7,7.3z M43.8,19.6h-1.2c-0.6,0-1-0.4-1-1v-3.4c0-2.4-2-4.4-4.4-4.4H37c-0.4,0-0.7-0.2-0.9-0.6
	l-3.5-7c-0.5-1-1.7-1.5-2.8-1.1L8.4,10.7c-0.1,0-0.2,0.1-0.4,0.1H6.4c-2.4,0-4.4,2-4.4,4.4v26.4C2,44,4,46,6.4,46h30.8
	c2.4,0,4.4-2,4.4-4.4v-3.4c0-0.6,0.4-1,1-1h1.2c1.2,0,2.2-1,2.2-2.2V21.8C46,20.6,45,19.6,43.8,19.6z"/>
<path fill-rule="evenodd" clip-rule="evenodd" fill="#541E66" d="M30.6,28.4c0,1.2,1,2.2,2.2,2.2c1.2,0,2.2-1,2.2-2.2
	c0-1.2-1-2.2-2.2-2.2C31.6,26.2,30.6,27.2,30.6,28.4z"/>
</svg>
