<svg width="24" height="24" viewBox="0 0 24 24" fill="none" xmlns="http://www.w3.org/2000/svg">
<path fill-rule="evenodd" clip-rule="evenodd" d="M22 11.8889C22 11.3366 21.5523 10.8889 21 10.8889H14.1111C13.5588 10.8889 13.1111 10.4412 13.1111 9.88889V3C13.1111 2.44772 12.6634 2 12.1111 2H11.8889C11.3366 2 10.8889 2.44772 10.8889 3V9.88889C10.8889 10.4412 10.4412 10.8889 9.88889 10.8889H3C2.44772 10.8889 2 11.3366 2 11.8889V12.1111C2 12.6634 2.44772 13.1111 3 13.1111H9.88889C10.4412 13.1111 10.8889 13.5588 10.8889 14.1111V21C10.8889 21.5523 11.3366 22 11.8889 22H12.1111C12.6634 22 13.1111 21.5523 13.1111 21V14.1111C13.1111 13.5588 13.5588 13.1111 14.1111 13.1111H21C21.5523 13.1111 22 12.6634 22 12.1111V11.8889Z" fill="#505050"/>
</svg>
